<?xml version="1.0" encoding="UTF-8" standalone="no"?>
<!-- Created with Inkscape (http://www.inkscape.org/) -->

<svg
   xmlns:dc="http://purl.org/dc/elements/1.1/"
   xmlns:cc="http://creativecommons.org/ns#"
   xmlns:rdf="http://www.w3.org/1999/02/22-rdf-syntax-ns#"
   xmlns:svg="http://www.w3.org/2000/svg"
   xmlns="http://www.w3.org/2000/svg"
   xmlns:sodipodi="http://sodipodi.sourceforge.net/DTD/sodipodi-0.dtd"
   xmlns:inkscape="http://www.inkscape.org/namespaces/inkscape"
   width="210mm"
   height="297mm"
   viewBox="0 0 744.09448819 1052.3622047"
   id="svg2"
   version="1.1"
   inkscape:version="0.91 r13725"
   sodipodi:docname="circular_wavelets_intersect_along_st.svg">
  <sodipodi:namedview
     id="base"
     pagecolor="#ffffff"
     bordercolor="#666666"
     borderopacity="1.0"
     inkscape:pageopacity="0.0"
     inkscape:pageshadow="2"
     inkscape:zoom="2.8"
     inkscape:cx="224.89049"
     inkscape:cy="533.58393"
     inkscape:document-units="px"
     inkscape:current-layer="layer1"
     showgrid="false"
     inkscape:window-width="1918"
     inkscape:window-height="1078"
     inkscape:window-x="0"
     inkscape:window-y="0"
     inkscape:window-maximized="0" />
  <defs
     id="defs4">
    <marker
       inkscape:stockid="Arrow1Lstart"
       orient="auto"
       refY="0.0"
       refX="0.0"
       id="Arrow1Lstart"
       style="overflow:visible"
       inkscape:isstock="true">
      <path
         id="path4570"
         d="M 0.0,0.0 L 5.0,-5.0 L -12.5,0.0 L 5.0,5.0 L 0.0,0.0 z "
         style="fill-rule:evenodd;stroke:#000000;stroke-width:1pt;stroke-opacity:1;fill:#000000;fill-opacity:1"
         transform="scale(0.8) translate(12.5,0)" />
    </marker>
    <marker
       inkscape:isstock="true"
       style="overflow:visible;"
       id="marker5040"
       refX="0.0"
       refY="0.0"
       orient="auto"
       inkscape:stockid="Arrow1Lend">
      <path
         transform="scale(0.8) rotate(180) translate(12.5,0)"
         style="fill-rule:evenodd;stroke:#d47f33;stroke-width:1pt;stroke-opacity:1;fill:#d47f33;fill-opacity:1"
         d="M 0.0,0.0 L 5.0,-5.0 L -12.5,0.0 L 5.0,5.0 L 0.0,0.0 z "
         id="path5042" />
    </marker>
    <marker
       inkscape:stockid="Arrow1Lend"
       orient="auto"
       refY="0.0"
       refX="0.0"
       id="marker5004"
       style="overflow:visible;"
       inkscape:isstock="true"
       inkscape:collect="always">
      <path
         id="path5006"
         d="M 0.0,0.0 L 5.0,-5.0 L -12.5,0.0 L 5.0,5.0 L 0.0,0.0 z "
         style="fill-rule:evenodd;stroke:#d47f33;stroke-width:1pt;stroke-opacity:1;fill:#d47f33;fill-opacity:1"
         transform="scale(0.8) rotate(180) translate(12.5,0)" />
    </marker>
    <marker
       inkscape:isstock="true"
       style="overflow:visible;"
       id="marker4970"
       refX="0.0"
       refY="0.0"
       orient="auto"
       inkscape:stockid="Arrow1Lend"
       inkscape:collect="always">
      <path
         transform="scale(0.8) rotate(180) translate(12.5,0)"
         style="fill-rule:evenodd;stroke:#d47f33;stroke-width:1pt;stroke-opacity:1;fill:#d47f33;fill-opacity:1"
         d="M 0.0,0.0 L 5.0,-5.0 L -12.5,0.0 L 5.0,5.0 L 0.0,0.0 z "
         id="path4972" />
    </marker>
    <marker
       inkscape:stockid="Arrow1Lend"
       orient="auto"
       refY="0.0"
       refX="0.0"
       id="marker4938"
       style="overflow:visible;"
       inkscape:isstock="true"
       inkscape:collect="always">
      <path
         id="path4940"
         d="M 0.0,0.0 L 5.0,-5.0 L -12.5,0.0 L 5.0,5.0 L 0.0,0.0 z "
         style="fill-rule:evenodd;stroke:#d47f33;stroke-width:1pt;stroke-opacity:1;fill:#d47f33;fill-opacity:1"
         transform="scale(0.8) rotate(180) translate(12.5,0)" />
    </marker>
    <marker
       inkscape:isstock="true"
       style="overflow:visible;"
       id="marker4908"
       refX="0.0"
       refY="0.0"
       orient="auto"
       inkscape:stockid="Arrow1Lend"
       inkscape:collect="always">
      <path
         transform="scale(0.8) rotate(180) translate(12.5,0)"
         style="fill-rule:evenodd;stroke:#0000db;stroke-width:1pt;stroke-opacity:1;fill:#0000db;fill-opacity:1"
         d="M 0.0,0.0 L 5.0,-5.0 L -12.5,0.0 L 5.0,5.0 L 0.0,0.0 z "
         id="path4910" />
    </marker>
    <marker
       inkscape:isstock="true"
       style="overflow:visible;"
       id="marker4880"
       refX="0.0"
       refY="0.0"
       orient="auto"
       inkscape:stockid="Arrow1Lend">
      <path
         transform="scale(0.8) rotate(180) translate(12.5,0)"
         style="fill-rule:evenodd;stroke:#0000db;stroke-width:1pt;stroke-opacity:1;fill:#0000db;fill-opacity:1"
         d="M 0.0,0.0 L 5.0,-5.0 L -12.5,0.0 L 5.0,5.0 L 0.0,0.0 z "
         id="path4882" />
    </marker>
    <marker
       inkscape:stockid="Arrow1Lend"
       orient="auto"
       refY="0.0"
       refX="0.0"
       id="marker4854"
       style="overflow:visible;"
       inkscape:isstock="true"
       inkscape:collect="always">
      <path
         id="path4856"
         d="M 0.0,0.0 L 5.0,-5.0 L -12.5,0.0 L 5.0,5.0 L 0.0,0.0 z "
         style="fill-rule:evenodd;stroke:#0000db;stroke-width:1pt;stroke-opacity:1;fill:#0000db;fill-opacity:1"
         transform="scale(0.8) rotate(180) translate(12.5,0)" />
    </marker>
    <marker
       inkscape:stockid="Arrow1Lend"
       orient="auto"
       refY="0.0"
       refX="0.0"
       id="Arrow1Lend"
       style="overflow:visible;"
       inkscape:isstock="true">
      <path
         id="path4573"
         d="M 0.0,0.0 L 5.0,-5.0 L -12.5,0.0 L 5.0,5.0 L 0.0,0.0 z "
         style="fill-rule:evenodd;stroke:#0000db;stroke-width:1pt;stroke-opacity:1;fill:#0000db;fill-opacity:1"
         transform="scale(0.8) rotate(180) translate(12.5,0)" />
    </marker>
  </defs>
  <metadata
     id="metadata7">
    <rdf:RDF>
      <cc:Work
         rdf:about="">
        <dc:format>image/svg+xml</dc:format>
        <dc:type
           rdf:resource="http://purl.org/dc/dcmitype/StillImage" />
        <dc:title></dc:title>
      </cc:Work>
    </rdf:RDF>
  </metadata>
  <g
     inkscape:label="Layer 1"
     inkscape:groupmode="layer"
     id="layer1">
    <path
       style="fill:#ffffff;fill-opacity:0;stroke:#0000db;stroke-width:1.86908078;stroke-miterlimit:4;stroke-dasharray:none;stroke-dashoffset:0;stroke-opacity:1"
       id="path4148"
       sodipodi:type="arc"
       sodipodi:cx="80.413582"
       sodipodi:cy="537.02161"
       sodipodi:rx="119.72363"
       sodipodi:ry="122.50791"
       sodipodi:start="0"
       sodipodi:end="6.2611871"
       sodipodi:open="true"
       d="M 200.13721,537.02161 A 119.72363,122.50791 0 0 1 81.072005,659.52767 119.72363,122.50791 0 0 1 -39.302809,538.36906 119.72363,122.50791 0 0 1 78.438393,414.53037 119.72363,122.50791 0 0 1 200.10825,534.32687" />
    <g
       id="g4224"
       transform="matrix(0.84971887,0.52723605,-0.52723605,0.84971887,338.93525,-107.4544)">
      <path
         inkscape:connector-curvature="0"
         id="path4138"
         d="M 131.18979,674.96609 577.38164,399.7583"
         style="fill:none;fill-rule:evenodd;stroke:#000000;stroke-width:1.59899998;stroke-linecap:butt;stroke-linejoin:miter;stroke-miterlimit:4;stroke-dasharray:none;stroke-opacity:1" />
      <path
         d="m 138.76971,672.73425 a 4.2300196,4.2300196 0 0 1 -4.20677,4.22996 4.2300196,4.2300196 0 0 1 -4.25302,-4.18345 4.2300196,4.2300196 0 0 1 4.16,-4.27595 4.2300196,4.2300196 0 0 1 4.29876,4.13643"
         sodipodi:open="true"
         sodipodi:end="6.2611942"
         sodipodi:start="0"
         sodipodi:ry="4.2300196"
         sodipodi:rx="4.2300196"
         sodipodi:cy="672.73425"
         sodipodi:cx="134.53969"
         sodipodi:type="arc"
         id="path4207"
         style="fill:#000a00;fill-opacity:1;stroke:#0000db;stroke-width:0;stroke-miterlimit:4;stroke-dasharray:none;stroke-dashoffset:0;stroke-opacity:1" />
      <path
         d="m 581.55143,399.86221 a 4.2300196,4.2300196 0 0 1 -4.20676,4.22996 4.2300196,4.2300196 0 0 1 -4.25302,-4.18345 4.2300196,4.2300196 0 0 1 4.16,-4.27595 4.2300196,4.2300196 0 0 1 4.29876,4.13643"
         sodipodi:open="true"
         sodipodi:end="6.2611942"
         sodipodi:start="0"
         sodipodi:ry="4.2300196"
         sodipodi:rx="4.2300196"
         sodipodi:cy="399.86221"
         sodipodi:cx="577.32141"
         sodipodi:type="arc"
         id="path4207-3"
         style="fill:#000a00;fill-opacity:1;stroke:#0000db;stroke-width:0;stroke-miterlimit:4;stroke-dasharray:none;stroke-dashoffset:0;stroke-opacity:1" />
    </g>
    <path
       style="fill:#ffffff;fill-opacity:0;stroke:#95add7;stroke-width:3.48150349;stroke-miterlimit:4;stroke-dasharray:6.96300708, 3.48150354;stroke-dashoffset:0;stroke-opacity:1"
       id="path4148-6"
       sodipodi:type="arc"
       sodipodi:cx="72.360512"
       sodipodi:cy="545.89471"
       sodipodi:rx="223.00706"
       sodipodi:ry="228.1933"
       sodipodi:start="0"
       sodipodi:end="6.2611871"
       sodipodi:open="true"
       d="M 295.36758,545.89471 A 223.00706,228.1933 0 0 1 73.586945,774.08456 223.00706,228.1933 0 0 1 -150.63306,548.40459 223.00706,228.1933 0 0 1 68.681362,317.73247 223.00706,228.1933 0 0 1 295.31362,540.87528" />
    <path
       style="fill:#ffffff;fill-opacity:0;stroke:#d47f33;stroke-width:3.6535902;stroke-miterlimit:4;stroke-dasharray:none;stroke-dashoffset:0;stroke-opacity:1"
       id="path4148-7"
       sodipodi:type="arc"
       sodipodi:cx="522.53119"
       sodipodi:cy="852.48505"
       sodipodi:rx="234.03003"
       sodipodi:ry="239.47264"
       sodipodi:start="0"
       sodipodi:end="6.2611871"
       sodipodi:open="true"
       d="M 756.56122,852.48505 A 234.03003,239.47264 0 0 1 523.81824,1091.9541 234.03003,239.47264 0 0 1 288.51532,855.11898 234.03003,239.47264 0 0 1 518.67018,613.045 234.03003,239.47264 0 0 1 756.50459,847.2175" />
    <path
       style="fill:#ffffff;fill-opacity:0;stroke:#d47f33;stroke-width:5.93360043;stroke-miterlimit:4;stroke-dasharray:11.86720011, 5.93360004;stroke-dashoffset:0;stroke-opacity:0.40935675"
       id="path4148-7-5"
       sodipodi:type="arc"
       sodipodi:cx="511.42886"
       sodipodi:cy="857.18683"
       sodipodi:rx="380.03299"
       sodipodi:ry="388.87106"
       sodipodi:start="0"
       sodipodi:end="6.2611871"
       sodipodi:open="true"
       d="M 891.46185,857.18683 A 380.03299,388.87106 0 0 1 513.51886,1246.052 380.03299,388.87106 0 0 1 131.41886,861.46398 380.03299,388.87106 0 0 1 505.15911,468.36869 380.03299,388.87106 0 0 1 891.3699,848.63305" />
    <path
       transform="matrix(0.84971887,0.52723605,-0.52723605,0.84971887,0,0)"
       d="m 542.14212,299.08875 a 8.2599754,8.2599754 0 0 1 -8.21457,8.25985 8.2599754,8.2599754 0 0 1 -8.30489,-8.16903 8.2599754,8.2599754 0 0 1 8.12325,-8.34968 8.2599754,8.2599754 0 0 1 8.39421,8.07722"
       sodipodi:open="true"
       sodipodi:end="6.2611942"
       sodipodi:start="0"
       sodipodi:ry="8.2599754"
       sodipodi:rx="8.2599754"
       sodipodi:cy="299.08875"
       sodipodi:cx="533.88214"
       sodipodi:type="arc"
       id="path4207-6"
       style="fill:#f90a00;fill-opacity:1;stroke:#cfdadb;stroke-width:0;stroke-miterlimit:4;stroke-dasharray:none;stroke-dashoffset:0;stroke-opacity:1" />
    <path
       transform="matrix(0.84971887,0.52723605,-0.52723605,0.84971887,0,0)"
       d="m 903.83854,440.15192 a 4.2300196,4.2300196 0 0 1 -4.20676,4.22995 4.2300196,4.2300196 0 0 1 -4.25302,-4.18344 4.2300196,4.2300196 0 0 1 4.16,-4.27596 4.2300196,4.2300196 0 0 1 4.29876,4.13643"
       sodipodi:open="true"
       sodipodi:end="6.2611942"
       sodipodi:start="0"
       sodipodi:ry="4.2300196"
       sodipodi:rx="4.2300196"
       sodipodi:cy="440.15192"
       sodipodi:cx="899.60852"
       sodipodi:type="arc"
       id="path4207-2"
       style="fill:#000a00;fill-opacity:1;stroke:#0000db;stroke-width:0;stroke-miterlimit:4;stroke-dasharray:none;stroke-dashoffset:0;stroke-opacity:1" />
    <g
       transform="translate(328.29958,200.0102)"
       id="g4403">
      <g
         style="font-style:normal;font-variant:normal;font-weight:normal;font-stretch:normal;letter-spacing:normal;word-spacing:normal;text-anchor:start;fill:none;fill-opacity:1;fill-rule:evenodd;stroke:#000000;stroke-linecap:butt;stroke-linejoin:miter;stroke-miterlimit:10.43299961;stroke-dasharray:none;stroke-dashoffset:0;stroke-opacity:1"
         word-spacing="normal"
         letter-spacing="normal"
         font-size-adjust="none"
         font-stretch="normal"
         font-weight="normal"
         font-variant="normal"
         font-style="normal"
         stroke-miterlimit="10.433"
         xml:space="preserve"
         transform="matrix(1.0629921,0,0,-1.0629921,-186.02362,789.27165)"
         id="g4405"><path
           style="fill:#000000;stroke-width:0"
           inkscape:connector-curvature="0"
           id="path4407"
           d="m 477.27,436.24 0.03,0.13 0.03,0.12 0.03,0.11 0.03,0.11 0.03,0.11 0.03,0.09 0.03,0.1 0.03,0.08 0.03,0.09 0.03,0.07 0.03,0.08 0.03,0.06 0.03,0.07 0.03,0.06 0.03,0.05 0.03,0.06 0.03,0.04 0.03,0.05 0.04,0.04 0.03,0.04 0.04,0.03 0.03,0.04 0.04,0.03 0.04,0.02 0.04,0.03 0.05,0.02 0.04,0.02 0.05,0.02 0.05,0.02 0.05,0.02 0.05,0.01 0.05,0.02 c 0.45,0.1 2.1,0.1 3.14,0.1 5.04,0 7.28,-0.2 7.28,-4.09 0,-0.74 -0.2,-2.68 -0.4,-3.98 -0.05,-0.2 -0.15,-0.8 -0.15,-0.95 0,-0.3 0.15,-0.64 0.6,-0.64 0.55,0 0.64,0.39 0.74,1.14 l 1.35,8.67 c 0.05,0.2 0.1,0.7 0.1,0.85 0,0.54 -0.5,0.54 -1.35,0.54 l -27.64,0 c -1.2,0 -1.25,-0.05 -1.6,-0.99 l -2.98,-8.77 c -0.05,-0.1 -0.3,-0.8 -0.3,-0.9 0,-0.29 0.25,-0.54 0.59,-0.54 0.5,0 0.55,0.25 0.85,1.04 2.69,7.72 3.98,8.62 11.36,8.62 l 1.94,0 c 1.4,0 1.4,-0.2 1.4,-0.6 0,-0.3 -0.16,-0.9 -0.2,-1.04 l -6.68,-26.61 c -0.45,-1.84 -0.6,-2.39 -5.93,-2.39 -1.79,0 -2.09,0 -2.09,-0.94 0,-0.6 0.55,-0.6 0.85,-0.6 1.34,0 2.74,0.1 4.08,0.1 l 8.37,0 c 1.44,0 2.94,-0.1 4.33,-0.1 0.5,0 1.1,0 1.1,1 0,0.54 -0.4,0.54 -1.69,0.54 -1.25,0 -1.89,0 -3.19,0.1 -1.45,0.15 -1.84,0.3 -1.84,1.1 0,0.05 0,0.3 0.19,1.05 z" /></g>    </g>
    <g
       transform="translate(213.14219,543.46207)"
       id="g4461">
      <g
         style="font-style:normal;font-variant:normal;font-weight:normal;font-stretch:normal;letter-spacing:normal;word-spacing:normal;text-anchor:start;fill:none;fill-opacity:1;fill-rule:evenodd;stroke:#000000;stroke-linecap:butt;stroke-linejoin:miter;stroke-miterlimit:10.43299961;stroke-dasharray:none;stroke-dashoffset:0;stroke-opacity:1"
         id="g4463"
         transform="matrix(1.0629921,0,0,-1.0629921,-186.02362,789.27165)"
         xml:space="preserve"
         stroke-miterlimit="10.433"
         font-style="normal"
         font-variant="normal"
         font-weight="normal"
         font-stretch="normal"
         font-size-adjust="none"
         letter-spacing="normal"
         word-spacing="normal"><path
           style="fill:#000000;stroke-width:0"
           inkscape:connector-curvature="0"
           d="m 471.09,421.74 0.2,1.3 3.39,13.55 c 0.45,1.74 0.55,1.89 2.69,1.89 l 4.78,0 c 4.14,0 6.78,-1.35 6.78,-4.78 0,-1.95 -1,-6.23 -2.94,-8.02 -2.49,-2.25 -5.48,-2.64 -7.67,-2.64 l -7.03,0 -0.2,-1.3 8.47,0 c 7.08,0 14,5.18 14,10.76 0,3.84 -3.29,7.52 -9.81,7.52 l -16.14,0 c -0.95,0 -1.5,0 -1.5,-0.95 0,-0.59 0.45,-0.59 1.45,-0.59 0.64,0 1.54,-0.05 2.14,-0.1 0.8,-0.1 1.09,-0.25 1.09,-0.8 0,-0.2 -0.04,-0.35 -0.2,-0.94 l -6.67,-26.75 c -0.5,-1.95 -0.6,-2.35 -4.53,-2.35 -0.85,0 -1.4,0 -1.4,-0.94 0,-0.6 0.6,-0.6 0.75,-0.6 l 12.75,0 c 0.35,0 1,0 1,1 0,0.54 -0.45,0.54 -1.4,0.54 -1.84,0 -3.23,0 -3.23,0.9 0,0.3 0.1,0.55 0.14,0.85 z"
           id="path4465" /></g>    </g>
    <g
       id="g4519"
       transform="translate(-2.8571429,227.14286)">
      <g
         word-spacing="normal"
         letter-spacing="normal"
         font-size-adjust="none"
         font-stretch="normal"
         font-weight="normal"
         font-variant="normal"
         font-style="normal"
         stroke-miterlimit="10.433"
         xml:space="preserve"
         transform="matrix(1.0629921,0,0,-1.0629921,-186.02362,789.27165)"
         id="g4521"
         style="font-style:normal;font-variant:normal;font-weight:normal;font-stretch:normal;letter-spacing:normal;word-spacing:normal;text-anchor:start;fill:none;fill-opacity:1;fill-rule:evenodd;stroke:#000000;stroke-linecap:butt;stroke-linejoin:miter;stroke-miterlimit:10.43299961;stroke-dasharray:none;stroke-dashoffset:0;stroke-opacity:1"><path
           id="path4523"
           d="m 502.13,436.19 0.04,0.16 0.04,0.16 0.04,0.15 0.04,0.14 0.04,0.14 0.04,0.12 0.04,0.13 0.05,0.11 0.05,0.11 0.06,0.1 0.06,0.1 0.06,0.09 0.08,0.08 0.08,0.08 0.09,0.08 0.1,0.06 0.1,0.07 0.12,0.05 0.13,0.06 0.14,0.05 0.16,0.04 0.08,0.02 0.08,0.02 0.09,0.01 0.09,0.02 0.1,0.02 0.1,0.01 0.1,0.01 0.11,0.02 0.11,0.01 0.12,0.01 0.12,0.01 0.12,0.01 0.13,0.01 0.13,0 0.14,0.01 0.14,0 0.15,0.01 0.15,0 0.16,0 0.16,0.01 0.17,0 0.17,0 c 1.14,0 1.59,0 1.59,0.99 0,0.55 -0.49,0.55 -1.34,0.55 l -6.57,0 c -1.3,0 -1.35,0 -1.95,-0.95 l -18.18,-28.39 -3.89,28.2 c -0.14,1.14 -0.25,1.14 -1.54,1.14 l -6.82,0 c -0.95,0 -1.5,0 -1.5,-0.95 0,-0.59 0.45,-0.59 1.45,-0.59 0.64,0 1.54,-0.05 2.14,-0.1 0.79,-0.1 1.09,-0.25 1.09,-0.8 0,-0.2 -0.05,-0.35 -0.19,-0.94 l -6.33,-25.36 c -0.5,-1.99 -1.35,-3.58 -5.38,-3.74 -0.25,0 -0.9,-0.04 -0.9,-0.94 0,-0.45 0.3,-0.6 0.7,-0.6 l 10.11,0 c 0.25,0 0.9,0 0.9,1 0,0.54 -0.55,0.54 -0.9,0.54 -2.84,0.05 -3.38,1.05 -3.38,2.19 0,0.36 0.04,0.6 0.19,1.15 l 6.78,27.15 0.05,0 4.28,-30.89 c 0.1,-0.59 0.15,-1.14 0.75,-1.14 0.55,0 0.84,0.55 1.09,0.9 l 20.13,31.53 0.05,0 -7.13,-28.54 c -0.49,-1.95 -0.59,-2.35 -4.53,-2.35 -0.84,0 -1.39,0 -1.39,-0.94 0,-0.6 0.6,-0.6 0.75,-0.6 l 12.4,0 c 0.3,0 0.95,0 0.95,1 0,0.54 -0.45,0.54 -1.4,0.54 -1.84,0 -3.24,0 -3.24,0.9 0,0.2 0,0.3 0.25,1.2 z"
           inkscape:connector-curvature="0"
           style="fill:#000000;stroke-width:0" /></g>    </g>
    <path
       style="fill:none;fill-rule:evenodd;stroke:#0000db;stroke-width:1px;stroke-linecap:butt;stroke-linejoin:miter;stroke-opacity:1;marker-end:url(#Arrow1Lend)"
       d="m 77.142857,407.36218 0,-30"
       id="path4550"
       inkscape:connector-curvature="0" />
    <path
       style="fill:none;fill-rule:evenodd;stroke:#0000db;stroke-width:1px;stroke-linecap:butt;stroke-linejoin:miter;stroke-opacity:1;marker-end:url(#marker4854)"
       d="m -49.285714,530.21932 -35.714286,0"
       id="path4552"
       inkscape:connector-curvature="0" />
    <path
       style="fill:none;fill-rule:evenodd;stroke:#0000db;stroke-width:1px;stroke-linecap:butt;stroke-linejoin:miter;stroke-opacity:1;marker-end:url(#marker4880)"
       d="m 205,530.21932 29.28571,0"
       id="path4554"
       inkscape:connector-curvature="0" />
    <path
       style="fill:none;fill-rule:evenodd;stroke:#0000db;stroke-width:1px;stroke-linecap:butt;stroke-linejoin:miter;stroke-opacity:1;marker-end:url(#marker4908)"
       d="m 80,665.93361 0,30.71429"
       id="path4556"
       inkscape:connector-curvature="0" />
    <path
       style="fill:none;fill-rule:evenodd;stroke:#d47f33;stroke-width:1px;stroke-linecap:butt;stroke-linejoin:miter;stroke-opacity:1;marker-end:url(#marker4938)"
       d="m 513.15749,603.85445 0,-50.50762"
       id="path4558"
       inkscape:connector-curvature="0" />
    <path
       style="fill:none;fill-rule:evenodd;stroke:#d47f33;stroke-width:1px;stroke-linecap:butt;stroke-linejoin:miter;stroke-opacity:1;marker-end:url(#marker5004)"
       d="m 277.79195,856.39259 -50.50763,0"
       id="path4560"
       inkscape:connector-curvature="0" />
    <path
       style="fill:none;fill-rule:evenodd;stroke:#d47f33;stroke-width:1px;stroke-linecap:butt;stroke-linejoin:miter;stroke-opacity:1;marker-end:url(#marker4970)"
       d="m 763.67532,849.32152 51.51778,0"
       id="path4562"
       inkscape:connector-curvature="0" />
    <path
       style="fill:none;fill-rule:evenodd;stroke:#d47f33;stroke-width:1px;stroke-linecap:butt;stroke-linejoin:miter;stroke-opacity:1;marker-end:url(#marker5040)"
       d="m 525.27932,1101.8597 0,46.467"
       id="path4564"
       inkscape:connector-curvature="0" />
    <g
       id="g5239"
       transform="translate(222.94424,233.8694)">
      <g
         word-spacing="normal"
         letter-spacing="normal"
         font-size-adjust="none"
         font-stretch="normal"
         font-weight="normal"
         font-variant="normal"
         font-style="normal"
         stroke-miterlimit="10.433"
         xml:space="preserve"
         transform="matrix(1.0629921,0,0,-1.0629921,-186.02362,789.27165)"
         id="g5241"
         style="font-style:normal;font-variant:normal;font-weight:normal;font-stretch:normal;letter-spacing:normal;word-spacing:normal;text-anchor:start;fill:none;fill-opacity:1;fill-rule:evenodd;stroke:#000000;stroke-linecap:butt;stroke-linejoin:miter;stroke-miterlimit:10.43299961;stroke-dasharray:none;stroke-dashoffset:0;stroke-opacity:1"><path
           id="path5243"
           d="m 473.43,408.79 0.06,-0.19 0.06,-0.19 0.07,-0.18 0.07,-0.17 0.09,-0.17 0.08,-0.17 0.1,-0.16 0.1,-0.15 0.1,-0.15 0.11,-0.15 0.12,-0.14 0.12,-0.13 0.13,-0.13 0.13,-0.13 0.14,-0.11 0.14,-0.12 0.15,-0.1 0.15,-0.1 0.16,-0.09 0.16,-0.09 0.16,-0.08 0.17,-0.07 0.17,-0.07 0.18,-0.06 0.18,-0.06 0.18,-0.04 0.19,-0.04 0.18,-0.04 0.2,-0.02 0.19,-0.02 0.2,-0.01 0.2,-0.01 c 1.74,0 2.89,1.15 3.68,2.74 0.85,1.79 1.5,4.83 1.5,4.93 0,0.5 -0.45,0.5 -0.6,0.5 -0.5,0 -0.55,-0.2 -0.7,-0.89 -0.7,-2.8 -1.64,-6.18 -3.73,-6.18 -1.05,0 -1.55,0.65 -1.55,2.29 0,1.09 0.6,3.44 1,5.18 l 1.39,5.38 c 0.16,0.75 0.65,2.64 0.85,3.39 0.25,1.14 0.75,3.03 0.75,3.33 0,0.9 -0.7,1.35 -1.44,1.35 -0.25,0 -1.55,-0.05 -1.95,-1.74 -0.95,-3.64 -3.14,-12.36 -3.73,-15 -0.05,-0.2 -2.05,-4.18 -5.68,-4.18 -2.59,0 -3.09,2.24 -3.09,4.08 0,2.79 1.39,6.73 2.69,10.16 0.6,1.5 0.85,2.19 0.85,3.14 0,2.25 -1.6,4.09 -4.09,4.09 -4.73,0 -6.57,-7.23 -6.57,-7.67 0,-0.5 0.49,-0.5 0.59,-0.5 0.5,0 0.55,0.1 0.8,0.9 1.25,4.33 3.14,6.17 5.03,6.17 0.45,0 1.25,-0.05 1.25,-1.64 0,-1.2 -0.55,-2.64 -0.85,-3.39 -1.84,-4.93 -2.89,-8.02 -2.89,-10.46 0,-4.73 3.44,-5.98 6.13,-5.98 3.28,0 5.08,2.25 5.92,3.34 z"
           inkscape:connector-curvature="0"
           style="fill:#000000;stroke-width:0" /><path
           id="path5245"
           d="m 486.61,394.75 -0.02,-0.09 -0.02,-0.09 -0.02,-0.08 -0.02,-0.08 -0.02,-0.07 -0.02,-0.07 -0.03,-0.07 -0.02,-0.06 -0.02,-0.06 -0.03,-0.06 -0.03,-0.05 -0.03,-0.05 -0.03,-0.05 -0.03,-0.04 -0.04,-0.04 -0.04,-0.04 -0.04,-0.03 -0.05,-0.03 -0.05,-0.03 -0.05,-0.03 -0.06,-0.02 -0.07,-0.02 -0.07,-0.02 -0.07,-0.02 -0.08,-0.01 -0.05,-0.01 -0.04,-0.01 -0.04,0 -0.05,-0.01 -0.05,0 -0.05,0 -0.05,-0.01 -0.06,0 -0.05,0 -0.06,0 -0.06,-0.01 -0.06,0 -0.06,0 -0.06,0 c -0.46,0 -0.95,0 -0.95,-0.73 0,-0.38 0.32,-0.53 0.49,-0.53 l 6.66,0 c 0.32,0 0.7,0.11 0.7,0.77 0,0.49 -0.49,0.49 -0.91,0.49 -0.76,0 -1.7,0 -1.7,0.42 0,0.17 0.24,1.08 0.38,1.6 0.42,1.85 0.9,3.73 1.29,5.2 0.42,-0.7 1.5,-2.06 3.59,-2.06 l 0,0.98 c -2.48,0 -3.1,2.68 -3.1,3.03 0,0.14 0.07,0.38 0.1,0.52 l 1.75,7.01 c 2.02,2.69 3.76,3.21 4.88,3.21 1.36,0 2.54,-1.01 2.54,-3.38 0,-1.43 -0.76,-4.99 -1.81,-7.01 -0.87,-1.71 -2.58,-3.38 -4.36,-3.38 l 0,-0.98 c 4.25,0 8.96,4.71 8.96,9.9 0,4.08 -2.82,5.83 -5.23,5.83 -2.16,0 -4.01,-1.47 -4.95,-2.44 -0.59,1.99 -2.54,2.44 -3.59,2.44 -1.36,0 -2.2,-0.91 -2.76,-1.85 -0.69,-1.19 -1.25,-3.28 -1.25,-3.49 0,-0.45 0.49,-0.45 0.59,-0.45 0.49,0 0.52,0.11 0.77,1.05 0.52,2.02 1.18,3.76 2.54,3.76 0.91,0 1.16,-0.77 1.16,-1.71 0,-0.38 -0.08,-0.83 -0.11,-1.05 z"
           inkscape:connector-curvature="0"
           style="fill:#000000;stroke-width:0" /></g>    </g>
    <path
       style="fill:none;fill-rule:evenodd;stroke:#000000;stroke-width:1px;stroke-linecap:butt;stroke-linejoin:miter;stroke-opacity:1;marker-start:url(#Arrow1Lstart)"
       d="m 301.02546,515.97118 c 8.45177,-42.39871 17.94336,-73.8005 30.31941,-98.23953 7.02258,-13.86753 25.14524,-19.67222 41.64771,-24.94564 4.89761,-1.56505 13.37086,-4.08964 18.12292,-4.79262 17.9663,-2.65778 22.35583,-3.24927 31.12826,-3.34204"
       id="path5400"
       inkscape:connector-curvature="0"
       sodipodi:nodetypes="csssc" />
    <g
       id="g4342"
       transform="matrix(0.90669613,0,0,0.90669613,-225.80175,230.2484)">
      <g
         id="g4344"
         transform="matrix(1.0629921,0,0,-1.0629921,-186.02362,789.27165)"
         xml:space="preserve"
         stroke-miterlimit="10.433"
         font-style="normal"
         font-variant="normal"
         font-weight="normal"
         font-stretch="normal"
         font-size-adjust="none"
         letter-spacing="normal"
         word-spacing="normal"
         style="font-style:normal;font-variant:normal;font-weight:normal;font-stretch:normal;letter-spacing:normal;word-spacing:normal;text-anchor:start;fill:none;fill-opacity:1;fill-rule:evenodd;stroke:#000000;stroke-linecap:butt;stroke-linejoin:miter;stroke-miterlimit:10.43299961;stroke-dasharray:none;stroke-dashoffset:0;stroke-opacity:1"><path
           d="m 488.13,440.62 0,0.02 0,0.01 0,0.02 -0.01,0.02 0,0.01 0,0.02 -0.01,0.02 0,0.02 -0.01,0.02 -0.01,0.02 -0.01,0.02 -0.01,0.02 -0.01,0.02 -0.01,0.02 -0.01,0.02 -0.02,0.02 -0.01,0.02 -0.02,0.02 -0.02,0.02 -0.02,0.02 -0.02,0.02 -0.02,0.01 -0.03,0.02 -0.02,0.01 -0.03,0.01 -0.02,0.01 -0.01,0 -0.02,0.01 -0.01,0 -0.02,0.01 -0.02,0 -0.01,0.01 -0.02,0 -0.02,0 -0.02,0 -0.02,0 -0.02,0.01 -0.02,0 -0.02,0 c -0.25,0 -0.3,-0.05 -0.9,-0.75 l -2.39,-2.84 c -1.29,2.34 -3.88,3.59 -7.12,3.59 -6.33,0 -12.3,-5.73 -12.3,-11.76 0,-4.03 2.64,-6.32 5.18,-7.07 l 5.33,-1.4 c 1.84,-0.44 4.58,-1.19 4.58,-5.28 0,-4.48 -4.08,-9.16 -8.97,-9.16 -3.19,0 -8.71,1.09 -8.71,7.27 0,1.2 0.25,2.39 0.29,2.69 0.05,0.2 0.11,0.25 0.11,0.35 0,0.5 -0.35,0.55 -0.6,0.55 -0.25,0 -0.35,-0.05 -0.5,-0.2 -0.2,-0.2 -2.99,-11.56 -2.99,-11.71 0,-0.3 0.25,-0.5 0.55,-0.5 0.25,0 0.3,0.05 0.9,0.75 l 2.44,2.84 c 2.14,-2.89 5.52,-3.59 8.41,-3.59 6.78,0 12.66,6.63 12.66,12.81 0,3.43 -1.7,5.13 -2.44,5.83 -1.15,1.14 -1.9,1.34 -6.33,2.48 -1.1,0.3 -2.89,0.8 -3.34,0.9 -1.34,0.45 -3.04,1.89 -3.04,4.53 0,4.04 3.99,8.27 8.72,8.27 4.13,0 7.17,-2.14 7.17,-7.72 0,-1.59 -0.2,-2.49 -0.2,-2.79 0,-0.05 0,-0.5 0.6,-0.5 0.5,0 0.55,0.15 0.75,1 z"
           id="path4346"
           inkscape:connector-curvature="0"
           style="fill:#000000;stroke-width:0" /><path
           d="m 497.3,420.79 0,0.06 -0.01,0.05 0,0.05 -0.01,0.06 -0.01,0.06 -0.02,0.05 -0.01,0.06 -0.02,0.06 -0.03,0.05 -0.02,0.06 -0.03,0.05 -0.03,0.06 -0.03,0.05 -0.03,0.05 -0.04,0.05 -0.04,0.05 -0.05,0.05 -0.04,0.05 -0.05,0.04 -0.06,0.05 -0.05,0.04 -0.06,0.03 -0.06,0.04 -0.07,0.03 -0.07,0.03 -0.07,0.02 -0.07,0.02 -0.08,0.02 -0.08,0.02 -0.08,0.01 -0.09,0 -0.09,0.01 c -0.94,0 -1.95,-0.91 -1.95,-1.92 0,-0.59 0.45,-1.32 1.39,-1.32 1.02,0 1.96,0.97 1.96,1.91 z"
           id="path4348"
           inkscape:connector-curvature="0"
           style="fill:#000000;stroke-width:0" /><path
           d="m 490.18,403.08 -0.05,-0.17 -0.05,-0.17 -0.03,-0.08 -0.03,-0.09 -0.02,-0.08 -0.03,-0.09 -0.02,-0.09 -0.02,-0.09 -0.01,-0.1 -0.02,-0.09 -0.01,-0.1 -0.01,-0.05 0,-0.05 0,-0.05 -0.01,-0.06 0,-0.05 0,-0.06 c 0,-1.63 1.4,-2.96 3.31,-2.96 3.49,0 5.02,4.81 5.02,5.33 0,0.46 -0.45,0.46 -0.56,0.46 -0.48,0 -0.52,-0.21 -0.66,-0.59 -0.8,-2.79 -2.33,-4.22 -3.69,-4.22 -0.7,0 -0.88,0.45 -0.88,1.22 0,0.8 0.25,1.46 0.56,2.23 0.35,0.94 0.74,1.88 1.12,2.79 0.31,0.84 1.57,4.01 1.71,4.43 0.1,0.34 0.21,0.77 0.21,1.11 0,1.64 -1.4,2.97 -3.31,2.97 -3.46,0 -5.06,-4.74 -5.06,-5.34 0,-0.45 0.49,-0.45 0.59,-0.45 0.49,0 0.52,0.17 0.63,0.56 0.91,2.99 2.44,4.25 3.73,4.25 0.56,0 0.87,-0.28 0.87,-1.22 0,-0.8 -0.21,-1.32 -1.08,-3.48 z"
           id="path4350"
           inkscape:connector-curvature="0"
           style="fill:#000000;stroke-width:0" /></g>    </g>
    <g
       id="g4556"
       transform="matrix(0.82819876,0,0,0.82819876,-45.918034,213.85997)">
      <g
         word-spacing="normal"
         letter-spacing="normal"
         font-size-adjust="none"
         font-stretch="normal"
         font-weight="normal"
         font-variant="normal"
         font-style="normal"
         stroke-miterlimit="10.433"
         xml:space="preserve"
         transform="matrix(1.0629921,0,0,-1.0629921,-186.02362,789.27165)"
         id="g4558"
         style="font-style:normal;font-variant:normal;font-weight:normal;font-stretch:normal;letter-spacing:normal;word-spacing:normal;text-anchor:start;fill:none;fill-opacity:1;fill-rule:evenodd;stroke:#000000;stroke-linecap:butt;stroke-linejoin:miter;stroke-miterlimit:10.43299961;stroke-dasharray:none;stroke-dashoffset:0;stroke-opacity:1"><path
           id="path4561"
           d="m 473.43,408.79 0.06,-0.19 0.06,-0.19 0.07,-0.18 0.07,-0.17 0.09,-0.17 0.08,-0.17 0.1,-0.16 0.1,-0.15 0.1,-0.15 0.11,-0.15 0.12,-0.14 0.12,-0.13 0.13,-0.13 0.13,-0.13 0.14,-0.11 0.14,-0.12 0.15,-0.1 0.15,-0.1 0.16,-0.09 0.16,-0.09 0.16,-0.08 0.17,-0.07 0.17,-0.07 0.18,-0.06 0.18,-0.06 0.18,-0.04 0.19,-0.04 0.18,-0.04 0.2,-0.02 0.19,-0.02 0.2,-0.01 0.2,-0.01 c 1.74,0 2.89,1.15 3.68,2.74 0.85,1.79 1.5,4.83 1.5,4.93 0,0.5 -0.45,0.5 -0.6,0.5 -0.5,0 -0.55,-0.2 -0.7,-0.89 -0.7,-2.8 -1.64,-6.18 -3.73,-6.18 -1.05,0 -1.55,0.65 -1.55,2.29 0,1.09 0.6,3.44 1,5.18 l 1.39,5.38 c 0.16,0.75 0.65,2.64 0.85,3.39 0.25,1.14 0.75,3.03 0.75,3.33 0,0.9 -0.7,1.35 -1.44,1.35 -0.25,0 -1.55,-0.05 -1.95,-1.74 -0.95,-3.64 -3.14,-12.36 -3.73,-15 -0.05,-0.2 -2.05,-4.18 -5.68,-4.18 -2.59,0 -3.09,2.24 -3.09,4.08 0,2.79 1.39,6.73 2.69,10.16 0.6,1.5 0.85,2.19 0.85,3.14 0,2.25 -1.6,4.09 -4.09,4.09 -4.73,0 -6.57,-7.23 -6.57,-7.67 0,-0.5 0.49,-0.5 0.59,-0.5 0.5,0 0.55,0.1 0.8,0.9 1.25,4.33 3.14,6.17 5.03,6.17 0.45,0 1.25,-0.05 1.25,-1.64 0,-1.2 -0.55,-2.64 -0.85,-3.39 -1.84,-4.93 -2.89,-8.02 -2.89,-10.46 0,-4.73 3.44,-5.98 6.13,-5.98 3.28,0 5.08,2.25 5.92,3.34 z"
           inkscape:connector-curvature="0"
           style="fill:#000000;stroke-width:0" /><path
           id="path4563"
           d="m 508.76,423.06 0,0.02 0,0.01 0,0.02 -0.01,0.02 0,0.02 0,0.02 -0.01,0.01 0,0.02 -0.01,0.02 -0.01,0.02 -0.01,0.02 0,0.02 -0.01,0.02 -0.01,0.02 -0.02,0.01 -0.01,0.02 -0.01,0.02 -0.02,0.01 -0.01,0.02 -0.02,0.01 -0.02,0.02 -0.02,0.01 -0.02,0.01 -0.02,0.02 -0.02,0.01 -0.02,0.01 -0.03,0 -0.03,0.01 -0.01,0 -0.01,0 -0.02,0.01 -0.01,0 -0.02,0 -0.01,0 -0.02,0 -0.02,0 c -0.21,0 -0.24,-0.03 -0.69,-0.49 l -1.71,-1.98 c -1.33,1.85 -3.52,2.47 -5.65,2.47 -4.92,0 -9.28,-3.97 -9.28,-7.98 0,-0.53 0.11,-1.92 1.15,-3.21 1.19,-1.39 2.48,-1.71 4.85,-2.27 0.7,-0.17 2.44,-0.55 2.96,-0.69 1.12,-0.28 3.25,-1.05 3.25,-3.66 0,-2.83 -2.97,-6.14 -6.94,-6.14 -3.07,0 -6.77,1.08 -6.77,4.95 0,0.35 0.07,1.11 0.21,1.74 0.04,0.14 0.04,0.18 0.04,0.21 0,0.45 -0.42,0.45 -0.56,0.45 -0.49,0 -0.52,-0.07 -0.66,-0.69 l -1.78,-6.98 c -0.04,-0.13 -0.11,-0.35 -0.11,-0.52 0,-0.21 0.14,-0.42 0.49,-0.42 0.21,0 0.25,0.04 0.7,0.49 0.38,0.42 1.29,1.53 1.67,1.95 1.85,-2.02 4.57,-2.44 6.66,-2.44 5.27,0 9.52,4.54 9.52,8.65 0,1.53 -0.62,2.93 -1.39,3.73 -1.22,1.26 -1.74,1.39 -6.24,2.44 -0.73,0.18 -1.89,0.45 -2.2,0.56 -0.87,0.31 -2.34,1.19 -2.34,3.17 0,2.76 3.11,5.55 6.73,5.55 3.77,0 5.58,-2.13 5.58,-5.44 0,-0.46 -0.14,-1.26 -0.14,-1.57 0,-0.49 0.42,-0.49 0.6,-0.49 0.52,0 0.55,0.17 0.7,0.77 z"
           inkscape:connector-curvature="0"
           style="fill:#000000;stroke-width:0" /><path
           id="path4565"
           d="m 518.86,409.54 0,0.06 0,0.05 -0.01,0.06 -0.01,0.05 -0.01,0.05 -0.01,0.05 -0.02,0.05 -0.02,0.05 -0.02,0.05 -0.02,0.05 -0.03,0.04 -0.02,0.04 -0.03,0.05 -0.03,0.04 -0.04,0.04 -0.03,0.03 -0.04,0.04 -0.04,0.03 -0.04,0.03 -0.04,0.03 -0.05,0.03 -0.04,0.03 -0.05,0.02 -0.05,0.02 -0.05,0.02 -0.05,0.02 -0.06,0.01 -0.05,0.01 -0.06,0.01 -0.05,0.01 -0.06,0 -0.06,0 c -0.7,0 -1.52,-0.67 -1.52,-1.49 0,-0.7 0.55,-1.07 1.07,-1.07 0.82,0 1.54,0.74 1.54,1.49 z"
           inkscape:connector-curvature="0"
           style="fill:#000000;stroke-width:0" /><path
           id="path4567"
           d="m 520.03,397.59 0,0.01 0,0.02 0,0.01 0,0.02 0,0.01 -0.01,0.01 0,0.02 0,0.01 -0.01,0.01 0,0.01 -0.01,0.02 0,0.01 -0.01,0.01 -0.01,0.01 -0.01,0.01 0,0.01 -0.01,0.01 -0.01,0 -0.01,0.01 -0.01,0.01 -0.02,0.02 -0.01,0.01 -0.03,0.01 -0.02,0.01 -0.02,0.01 -0.02,0.01 -0.02,0.01 -0.02,0 -0.03,0.01 -0.02,0.01 -0.02,0 -0.02,0 -0.02,0.01 -0.03,0 -0.02,0 -0.01,0 -0.02,0 -0.02,0 -0.01,0 -0.02,0 -0.01,0 0,0 -0.01,0 c -0.42,0 -0.45,-0.09 -0.6,-0.57 -0.42,-1.37 -1.54,-2.79 -2.79,-2.79 -0.57,0 -0.74,0.4 -0.74,0.95 0,0.52 0.12,0.8 0.32,1.27 0.2,0.5 0.4,1 0.52,1.34 0.1,0.23 1.07,2.55 1.43,3.44 0.19,0.5 0.34,0.82 0.34,1.25 0,1.19 -1.15,2.19 -2.71,2.19 -2.62,0 -4.01,-3.19 -4.01,-3.86 0,-0.35 0.39,-0.35 0.52,-0.35 0.43,0 0.45,0.13 0.57,0.5 0.55,1.77 1.74,2.86 2.82,2.86 0.47,0 0.75,-0.27 0.75,-0.95 0,-0.09 0,-0.42 -0.16,-0.89 -0.17,-0.45 -1.29,-3.11 -1.64,-3.96 -0.17,-0.43 -0.17,-0.47 -0.55,-1.32 -0.12,-0.35 -0.27,-0.7 -0.27,-1.12 0,-1.3 1.22,-2.19 2.71,-2.19 2.62,0 4.01,3.23 4.01,3.86 z"
           inkscape:connector-curvature="0"
           style="fill:#000000;stroke-width:0" /></g>    </g>
  </g>
  <g
     transform="matrix(0.78683802,0,0,0.78683802,-335.26485,98.896056)"
     id="g6671">
    <g
       style="font-style:normal;font-variant:normal;font-weight:normal;font-stretch:normal;letter-spacing:normal;word-spacing:normal;text-anchor:start;fill:none;fill-opacity:1;fill-rule:evenodd;stroke:#000000;stroke-linecap:butt;stroke-linejoin:miter;stroke-miterlimit:10.43299961;stroke-dasharray:none;stroke-dashoffset:0;stroke-opacity:1"
       id="g6673"
       transform="matrix(1.0629921,0,0,-1.0629921,-186.02362,789.27165)"
       xml:space="preserve"
       stroke-miterlimit="10.433"
       font-style="normal"
       font-variant="normal"
       font-weight="normal"
       font-stretch="normal"
       font-size-adjust="none"
       letter-spacing="normal"
       word-spacing="normal"><g
         id="g10177"
         transform="matrix(0.62187136,0,0,-0.62187136,464.65557,655.76809)"><g
           word-spacing="normal"
           letter-spacing="normal"
           font-size-adjust="none"
           font-stretch="normal"
           font-weight="normal"
           font-variant="normal"
           font-style="normal"
           stroke-miterlimit="10.433"
           xml:space="preserve"
           transform="matrix(1.0629921,0,0,-1.0629921,-186.02362,789.27165)"
           id="g10179"
           style="font-style:normal;font-variant:normal;font-weight:normal;font-stretch:normal;letter-spacing:normal;word-spacing:normal;text-anchor:start;fill:none;fill-opacity:1;fill-rule:evenodd;stroke:#000000;stroke-linecap:butt;stroke-linejoin:miter;stroke-miterlimit:10.43299961;stroke-dasharray:none;stroke-dashoffset:0;stroke-opacity:1"><path
             id="path10181"
             d="m 1099,438.93 0,0.05 0,0.05 -0.1,0.04 0,0.05 0,0.09 -0.1,0.08 0,0.07 0,0.07 -0.1,0.07 0,0.06 0,0.06 -0.1,0.05 0,0.04 0,0.05 -0.1,0.03 0,0.04 -0.1,0.03 0,0.03 0,0.02 -0.1,0.02 0,0.02 -0.1,0.02 -0.1,0.01 0,0.01 -0.1,0.01 0,0.01 -0.1,0 -0.1,0.01 -0.1,0 -0.1,0 0,0 -0.1,0 -0.1,0 -0.1,0 -8.5,0 0,-1.54 1.2,0 c 3.9,0 4,-0.55 4,-2.34 l 0,-24.91 c 0,-1.34 0,-3.69 -5.2,-3.69 l 0,-1.54 11.7,0 0,1.54 c -5.1,0 -5.1,2.35 -5.1,3.69 l 0,26.85 0,0 12,-30.98 c 0.3,-0.65 0.5,-1.1 1,-1.1 0.6,0 0.7,0.4 0.9,0.95 l 12.3,31.53 0,0 0,-28.59 c 0,-1.8 -0.1,-2.35 -3.9,-2.35 l -1.2,0 0,-1.54 14.3,0 0,1.54 -1.2,0 c -3.8,0 -3.9,0.55 -3.9,2.35 l 0,26.25 c 0,1.79 0.1,2.34 3.9,2.34 l 1.2,0 0,1.54 -8.4,0 c -1.3,0 -1.3,-0.05 -1.7,-0.95 l -10.9,-28.04 z"
             inkscape:connector-curvature="0"
             style="fill:#000000;stroke-width:0" /><path
             id="path10183"
             d="m 1138.5,417.51 0.1,1.04 c 0.3,7.43 4.5,8.67 6.2,8.67 5.1,0 5.6,-6.72 5.6,-8.67 l -11.8,0 -0.1,-1.04 13.9,0 c 1.1,0 1.3,0 1.3,1.04 0,4.93 -2.7,9.77 -8.9,9.77 -5.8,0 -10.4,-5.14 -10.4,-11.36 0,-6.67 5.2,-11.51 11,-11.51 6,0 8.3,5.53 8.3,6.48 0,0.5 -0.4,0.6 -0.7,0.6 -0.4,0 -0.5,-0.3 -0.6,-0.7 -1.8,-5.13 -6.2,-5.13 -6.7,-5.13 -2.5,0 -4.5,1.49 -5.7,3.34 -1.5,2.39 -1.5,5.67 -1.5,7.47 z"
             inkscape:connector-curvature="0"
             style="fill:#000000;stroke-width:0" /><path
             id="path10185"
             d="m 1160.5,417.51 0.1,1.04 c 0.3,7.43 4.5,8.67 6.2,8.67 5.1,0 5.6,-6.72 5.6,-8.67 l -11.8,0 -0.1,-1.04 13.9,0 c 1.1,0 1.3,0 1.3,1.04 0,4.93 -2.7,9.77 -8.9,9.77 -5.8,0 -10.4,-5.14 -10.4,-11.36 0,-6.67 5.2,-11.51 11,-11.51 6,0 8.3,5.53 8.3,6.48 0,0.5 -0.4,0.6 -0.7,0.6 -0.4,0 -0.5,-0.3 -0.6,-0.7 -1.8,-5.13 -6.2,-5.13 -6.7,-5.13 -2.5,0 -4.5,1.49 -5.7,3.34 -1.5,2.39 -1.5,5.67 -1.5,7.47 z"
             inkscape:connector-curvature="0"
             style="fill:#000000;stroke-width:0" /><path
             id="path10187"
             d="m 1185.6,425.93 7.1,0 0,1.54 -7.1,0 0,9.17 -1.2,0 c -0.1,-4.09 -1.6,-9.42 -6.5,-9.62 l 0,-1.09 4.3,0 0,-13.75 c 0,-6.13 4.6,-6.73 6.4,-6.73 3.5,0 4.9,3.54 4.9,6.73 l 0,2.84 -1.2,0 0,-2.74 c 0,-3.69 -1.5,-5.58 -3.3,-5.58 -3.4,0 -3.4,4.53 -3.4,5.38 z"
             inkscape:connector-curvature="0"
             style="fill:#000000;stroke-width:0" /><path
             id="path10189"
             d="m 1204.8,428.02 -7,-0.55 0,-1.54 c 3.3,0 3.7,-0.31 3.7,-2.75 l 0,-13.39 c 0,-2.25 -0.5,-2.25 -3.9,-2.25 l 0,-1.54 10.7,0 0,1.54 c -3.3,0 -3.5,0.25 -3.5,2.19 z"
             inkscape:connector-curvature="0"
             style="fill:#000000;stroke-width:0" /><path
             id="path10191"
             d="m 1205,436.68 0,0.15 0,0.15 0,0.14 0,0.13 -0.1,0.14 0,0.13 0,0.13 -0.1,0.12 -0.1,0.12 0,0.11 -0.1,0.11 0,0.11 -0.1,0.1 -0.1,0.1 -0.1,0.09 -0.1,0.09 -0.1,0.09 -0.1,0.07 -0.1,0.08 -0.1,0.07 -0.1,0.06 -0.1,0.06 -0.1,0.06 -0.1,0.05 -0.1,0.04 -0.2,0.04 -0.1,0.03 -0.1,0.03 -0.1,0.02 -0.2,0.01 -0.1,0.01 -0.1,0 c -1.6,0 -2.7,-1.34 -2.7,-2.64 0,-1.34 1.1,-2.64 2.7,-2.64 1.4,0 2.6,1.05 2.6,2.64 z"
             inkscape:connector-curvature="0"
             style="fill:#000000;stroke-width:0" /><path
             id="path10193"
             d="m 1215.5,423.14 0,-13.35 c 0,-2.25 -0.6,-2.25 -3.9,-2.25 l 0,-1.54 11.2,0 0,1.54 c -3.3,0 -3.9,0 -3.9,2.25 l 0,9.16 c 0,5.18 3.5,7.97 6.7,7.97 3.2,0 3.7,-2.69 3.7,-5.53 l 0,-11.6 c 0,-2.25 -0.5,-2.25 -3.9,-2.25 l 0,-1.54 11.3,0 0,1.54 c -2.6,0 -3.9,0 -3.9,1.5 l 0,9.51 c 0,4.29 0,5.83 -1.6,7.63 -0.7,0.84 -2.3,1.84 -5.2,1.84 -3.6,0 -6,-2.14 -7.4,-5.23 l 0,5.23 -7,-0.55 0,-1.54 c 3.5,0 3.9,-0.35 3.9,-2.79 z"
             inkscape:connector-curvature="0"
             style="fill:#000000;stroke-width:0" /><path
             id="path10195"
             d="m 1243.3,412.62 0,0.03 0,0.02 0,0.04 0,0.03 0,0.04 0,0.05 0,0.05 0,0.05 0,0.06 0,0.07 0,0.06 0,0.07 0,0.07 0.1,0.08 0,0.08 0,0.08 0,0.08 0,0.08 0.1,0.09 0,0.09 0,0.09 0.1,0.09 0,0.09 0,0.1 0.1,0.09 0,0.1 0.1,0.09 0,0.1 0.1,0.09 0.1,0.1 0.1,0.09 0,0.09 c 2,-1.39 4,-1.54 5,-1.54 l 0,1.15 c -4.4,0 -4.4,4.98 -4.4,6.13 0,1.34 0.1,2.93 0.8,4.18 0.4,0.6 1.6,1.99 3.6,1.99 4.3,0 4.3,-4.98 4.3,-6.12 0,-1.35 -0.1,-2.95 -0.8,-4.19 -0.4,-0.6 -1.5,-1.99 -3.5,-1.99 l 0,0 0,-1.15 c 4.6,0 8,3.44 8,7.28 0,1.84 -0.8,3.68 -2,4.83 1.8,1.69 3.6,1.94 4.5,1.94 0.1,0 0.3,0 0.5,-0.05 -0.6,-0.2 -0.8,-0.75 -0.8,-1.35 0,-0.84 0.6,-1.44 1.4,-1.44 0.5,0 1.5,0.35 1.5,1.49 0,0.85 -0.6,2.45 -2.6,2.45 -1,0 -3.2,-0.3 -5.3,-2.35 -2.1,1.65 -4.1,1.8 -5.2,1.8 -4.7,0 -8.1,-3.44 -8.1,-7.27 0,-2.2 1.1,-4.09 2.3,-5.14 -0.6,-0.74 -1.5,-2.39 -1.5,-4.13 0,-1.55 0.6,-3.44 2.2,-4.43 -3,-0.85 -4.6,-2.99 -4.6,-4.98 0,-3.59 4.9,-6.33 11,-6.33 l 0,1.14 c -5,0 -8.4,2.55 -8.4,5.19 0,2.29 1.9,4.13 4.1,4.28 l 2.9,0 c 4.3,0 9.9,0 9.9,-4.28 0,-2.69 -3.6,-5.19 -8.5,-5.19 l 0,0 0,-1.14 c 5.9,0 11.1,2.54 11.1,6.42 0,1.75 -0.7,4.29 -3.3,5.68 -2.6,1.4 -5.5,1.4 -8.5,1.4 -1.3,0 -3.4,0 -3.8,0.05 -1.6,0.2 -2.6,1.74 -2.6,3.33 z"
             inkscape:connector-curvature="0"
             style="fill:#000000;stroke-width:0" /><path
             id="path10197"
             d="m 1288.6,424.73 0,3.29 -7.2,-0.55 0,-1.54 c 3.5,0 3.9,-0.31 3.9,-2.5 l 0,-23.31 c 0,-2.24 -0.6,-2.24 -3.9,-2.24 l 0,-1.54 11.2,0 0,1.54 c -3.3,0 -3.9,0 -3.9,2.24 l 0,8.37 0,0.45 0.7,0.65 c -0.7,1.04 -0.7,1.09 -0.7,2.09 l 0,0 0,11.11 c 1.5,2.54 3.9,3.98 6.4,3.98 3.7,0 6.7,-4.38 6.7,-10.01 0,-6.03 -3.5,-10.21 -7.2,-10.21 -1.9,0 -3.8,0.99 -5.2,3.04 l -0.7,-0.65 c 0.3,-0.8 2.4,-3.49 6.1,-3.49 6,0 11.1,4.88 11.1,11.31 0,6.33 -4.8,11.26 -10.4,11.26 -3.8,0 -5.9,-2.2 -6.9,-3.29 z"
             inkscape:connector-curvature="0"
             style="fill:#000000;stroke-width:0" /><path
             id="path10199"
             d="m 1332.5,416.66 -0.1,0.59 0,0.59 -0.1,0.58 -0.1,0.57 -0.1,0.56 -0.1,0.55 -0.2,0.54 -0.2,0.53 -0.2,0.52 -0.3,0.5 -0.2,0.49 -0.3,0.47 -0.3,0.46 -0.4,0.44 -0.3,0.42 -0.4,0.41 -0.4,0.39 -0.4,0.36 -0.4,0.35 -0.4,0.33 -0.5,0.3 -0.4,0.29 -0.5,0.26 -0.5,0.23 -0.5,0.21 -0.5,0.19 -0.5,0.16 -0.5,0.13 -0.6,0.1 -0.5,0.08 -0.6,0.04 -0.6,0.02 0,-1.1 c 2.2,0 4.3,-1.1 5.6,-3.24 1.3,-2.14 1.3,-5.03 1.3,-6.92 0,-1.79 0,-4.49 -1.1,-6.68 -1.1,-2.24 -3.3,-3.68 -5.8,-3.68 l 0,0 c -2.1,0 -4.3,1.04 -5.6,3.34 -1.3,2.19 -1.3,5.23 -1.3,7.02 0,1.94 0,4.63 1.2,6.82 1.4,2.3 3.7,3.34 5.7,3.34 l 0,1.1 c -6.2,0 -11,-5.43 -11,-11.66 0,-6.43 5.2,-11.21 11,-11.21 6,0 11.1,4.88 11.1,11.21 z"
             inkscape:connector-curvature="0"
             style="fill:#000000;stroke-width:0" /><path
             id="path10201"
             d="m 1342.8,428.02 -7,-0.55 0,-1.54 c 3.3,0 3.7,-0.31 3.7,-2.75 l 0,-13.39 c 0,-2.25 -0.5,-2.25 -3.9,-2.25 l 0,-1.54 10.7,0 0,1.54 c -3.3,0 -3.5,0.25 -3.5,2.19 z"
             inkscape:connector-curvature="0"
             style="fill:#000000;stroke-width:0" /><path
             id="path10203"
             d="m 1343,436.68 0,0.15 0,0.15 0,0.14 0,0.13 -0.1,0.14 0,0.13 0,0.13 -0.1,0.12 -0.1,0.12 0,0.11 -0.1,0.11 0,0.11 -0.1,0.1 -0.1,0.1 -0.1,0.09 -0.1,0.09 -0.1,0.09 -0.1,0.07 -0.1,0.08 -0.1,0.07 -0.1,0.06 -0.1,0.06 -0.1,0.06 -0.1,0.05 -0.1,0.04 -0.2,0.04 -0.1,0.03 -0.1,0.03 -0.1,0.02 -0.2,0.01 -0.1,0.01 -0.1,0 c -1.6,0 -2.7,-1.34 -2.7,-2.64 0,-1.34 1.1,-2.64 2.7,-2.64 1.4,0 2.6,1.05 2.6,2.64 z"
             inkscape:connector-curvature="0"
             style="fill:#000000;stroke-width:0" /><path
             id="path10205"
             d="m 1352.5,423.14 0,-13.35 c 0,-2.25 -0.6,-2.25 -3.9,-2.25 l 0,-1.54 11.2,0 0,1.54 c -3.3,0 -3.9,0 -3.9,2.25 l 0,9.16 c 0,5.18 3.5,7.97 6.7,7.97 3.2,0 3.7,-2.69 3.7,-5.53 l 0,-11.6 c 0,-2.25 -0.5,-2.25 -3.9,-2.25 l 0,-1.54 11.3,0 0,1.54 c -2.6,0 -3.9,0 -3.9,1.5 l 0,9.51 c 0,4.29 0,5.83 -1.6,7.63 -0.7,0.84 -2.3,1.84 -5.2,1.84 -3.6,0 -6,-2.14 -7.4,-5.23 l 0,5.23 -7,-0.55 0,-1.54 c 3.5,0 3.9,-0.35 3.9,-2.79 z"
             inkscape:connector-curvature="0"
             style="fill:#000000;stroke-width:0" /><path
             id="path10207"
             d="m 1382.6,425.93 7.1,0 0,1.54 -7.1,0 0,9.17 -1.2,0 c -0.1,-4.09 -1.6,-9.42 -6.5,-9.62 l 0,-1.09 4.3,0 0,-13.75 c 0,-6.13 4.6,-6.73 6.4,-6.73 3.5,0 4.9,3.54 4.9,6.73 l 0,2.84 -1.2,0 0,-2.74 c 0,-3.69 -1.5,-5.58 -3.3,-5.58 -3.4,0 -3.4,4.53 -3.4,5.38 z"
             inkscape:connector-curvature="0"
             style="fill:#000000;stroke-width:0" /><path
             id="path10209"
             d="m 1145.5,356.66 -0.1,0.59 0,0.59 -0.1,0.58 -0.1,0.57 -0.1,0.56 -0.1,0.55 -0.2,0.54 -0.2,0.53 -0.2,0.52 -0.3,0.5 -0.2,0.49 -0.3,0.47 -0.3,0.46 -0.4,0.44 -0.3,0.42 -0.4,0.41 -0.4,0.39 -0.4,0.36 -0.4,0.35 -0.4,0.33 -0.5,0.3 -0.4,0.29 -0.5,0.26 -0.5,0.23 -0.5,0.21 -0.5,0.19 -0.5,0.16 -0.5,0.13 -0.6,0.1 -0.5,0.08 -0.6,0.04 -0.6,0.02 0,-1.1 c 2.2,0 4.3,-1.1 5.6,-3.24 1.3,-2.14 1.3,-5.03 1.3,-6.92 0,-1.79 0,-4.49 -1.1,-6.68 -1.1,-2.24 -3.3,-3.68 -5.8,-3.68 l 0,0 c -2.1,0 -4.3,1.04 -5.6,3.34 -1.3,2.19 -1.3,5.23 -1.3,7.02 0,1.94 0,4.63 1.2,6.82 1.4,2.3 3.7,3.34 5.7,3.34 l 0,1.1 c -6.2,0 -11,-5.43 -11,-11.66 0,-6.43 5.2,-11.21 11,-11.21 6,0 11.1,4.88 11.1,11.21 z"
             inkscape:connector-curvature="0"
             style="fill:#000000;stroke-width:0" /><path
             id="path10211"
             d="m 1155.7,367.47 0,5.78 c 0,4.38 2.4,6.77 4.6,6.77 0.1,0 0.9,0 1.6,-0.35 -0.6,-0.2 -1.5,-0.84 -1.5,-2.09 0,-1.14 0.8,-2.14 2.2,-2.14 1.4,0 2.2,1 2.2,2.19 0,1.84 -1.9,3.49 -4.5,3.49 -3.5,0 -7.7,-2.64 -7.7,-7.92 l 0,-5.73 -4,0 0,-1.54 4,0 0,-16.14 c 0,-2.25 -0.6,-2.25 -3.9,-2.25 l 0,-1.54 12,0 0,1.54 -1,0 c -3.7,0 -3.8,0.55 -3.8,2.35 l 0,16.04 5.7,0 0,1.54 z"
             inkscape:connector-curvature="0"
             style="fill:#000000;stroke-width:0" /><path
             id="path10213"
             d="m 1208.8,362.74 0.1,0.23 0.1,0.21 0.1,0.21 0.1,0.2 0.1,0.18 0.1,0.18 0.1,0.17 0.1,0.16 0.1,0.15 0.2,0.14 0.1,0.13 0.1,0.13 0.1,0.11 0.1,0.11 0.2,0.1 0.1,0.1 0.1,0.08 0.2,0.08 0.1,0.07 0.2,0.07 0.1,0.06 0.2,0.06 0.1,0.04 0.2,0.05 0.1,0.03 0.2,0.04 0.1,0.02 0.2,0.03 0.1,0.01 0.2,0.02 0.2,0.01 0.1,0.01 0,1.54 -8.2,0 0,-1.54 c 1.7,-0.05 2.8,-0.95 2.8,-2.39 0,-0.31 0,-0.4 -0.2,-1.05 l -4.5,-12.76 -5,13.9 c -0.2,0.6 -0.2,0.7 -0.2,0.95 0,1.35 1.9,1.35 2.9,1.35 l 0,1.54 -9.6,0 0,-1.54 c 1.8,0 2.6,-0.11 3.1,-0.75 0.3,-0.3 0.8,-1.8 1.2,-2.74 l -4.3,-12.06 -4.7,13.3 c -0.3,0.6 -0.3,0.7 -0.3,0.9 0,1.35 2,1.35 3,1.35 l 0,1.54 -10.1,0 0,-1.54 c 2.5,0 3.1,-0.15 3.7,-1.75 l 6.3,-17.63 c 0.2,-0.7 0.4,-1.1 1,-1.1 0.7,0 0.8,0.3 1,1 l 5,14.1 5.1,-14.15 c 0.2,-0.55 0.4,-0.95 1,-0.95 0.7,0 0.8,0.45 1,0.95 z"
             inkscape:connector-curvature="0"
             style="fill:#000000;stroke-width:0" /><path
             id="path10215"
             d="m 1229.6,349.79 0,-0.19 0,-0.19 0.1,-0.19 0,-0.18 0.1,-0.19 0,-0.18 0.1,-0.18 0.1,-0.18 0,-0.18 0.1,-0.18 0.1,-0.17 0.1,-0.16 0.1,-0.17 0.1,-0.15 0.1,-0.16 0.1,-0.14 0.2,-0.15 0.1,-0.13 0.1,-0.13 0.2,-0.12 0.1,-0.12 0.2,-0.1 0.1,-0.1 0.2,-0.09 0.2,-0.08 0.2,-0.07 0.1,-0.07 0.2,-0.05 0.2,-0.04 0.2,-0.03 0.3,-0.01 0.2,-0.01 c 1,0 4.1,0.7 4.1,4.73 l 0,2.79 -1.3,0 0,-2.79 c 0,-2.89 -1.2,-3.18 -1.8,-3.18 -1.6,0 -1.8,2.24 -1.8,2.48 l 0,9.97 c 0,2.09 0,4.03 -1.8,5.88 -2,1.94 -4.5,2.74 -6.8,2.74 -4.1,0 -7.6,-2.34 -7.6,-5.63 0,-1.5 1,-2.34 2.3,-2.34 1.4,0 2.3,0.99 2.3,2.29 0,0.59 -0.2,2.24 -2.5,2.29 1.3,1.74 3.8,2.29 5.4,2.29 2.4,0 5.2,-1.94 5.2,-6.38 l 0,-1.84 0,-1.04 0,-4.99 c 0,-4.73 -3.5,-6.42 -5.8,-6.42 -2.4,0 -4.5,1.74 -4.5,4.23 0,2.74 2.1,6.88 10.3,7.18 l 0,0 0,1.04 c -2.5,-0.15 -6,-0.3 -9.1,-1.79 -3.8,-1.69 -5,-4.28 -5,-6.48 0,-4.03 4.8,-5.28 8,-5.28 3.2,0 5.5,2 6.5,4.34 z"
             inkscape:connector-curvature="0"
             style="fill:#000000;stroke-width:0" /><path
             id="path10217"
             d="m 1256.7,362.59 0.1,0.11 0,0.11 0.1,0.12 0,0.13 0.1,0.13 0,0.13 0.1,0.13 0.1,0.14 0,0.13 0.1,0.14 0.1,0.14 0.1,0.13 0.1,0.14 0.1,0.13 0.1,0.14 0.1,0.13 0.2,0.12 0.1,0.13 0.2,0.12 0.1,0.11 0.2,0.11 0.2,0.1 0.2,0.1 0.2,0.08 0.2,0.08 0.2,0.08 0.2,0.06 0.3,0.05 0.2,0.05 0.2,0.02 0.1,0.01 0.2,0.02 0.1,0.01 0.1,0 0.2,0.01 0,1.54 -8.1,0 0,-1.54 c 1.9,-0.05 2.4,-1.2 2.4,-2.14 0,-0.45 -0.1,-0.65 -0.3,-1.2 l -5.1,-12.7 -5.5,13.9 c -0.3,0.64 -0.3,0.74 -0.3,0.84 0,1.3 1.9,1.3 2.8,1.3 l 0,1.54 -10.3,0 0,-1.54 c 3.2,0 3.4,-0.31 4,-1.85 l 7.2,-17.68 c 0.3,-0.7 0.4,-0.95 1.1,-0.95 0.6,0 0.8,0.45 1,0.95 z"
             inkscape:connector-curvature="0"
             style="fill:#000000;stroke-width:0" /><path
             id="path10219"
             d="m 1266.5,357.51 0.1,1.04 c 0.3,7.43 4.5,8.67 6.2,8.67 5.1,0 5.6,-6.72 5.6,-8.67 l -11.8,0 -0.1,-1.04 13.9,0 c 1.1,0 1.3,0 1.3,1.04 0,4.93 -2.7,9.77 -8.9,9.77 -5.8,0 -10.4,-5.14 -10.4,-11.36 0,-6.67 5.2,-11.51 11,-11.51 6,0 8.3,5.53 8.3,6.48 0,0.5 -0.4,0.6 -0.7,0.6 -0.4,0 -0.5,-0.3 -0.6,-0.7 -1.8,-5.13 -6.2,-5.13 -6.7,-5.13 -2.5,0 -4.5,1.49 -5.7,3.34 -1.5,2.39 -1.5,5.67 -1.5,7.47 z"
             inkscape:connector-curvature="0"
             style="fill:#000000;stroke-width:0" /><path
             id="path10221"
             d="m 1291.8,380.57 -7.2,-0.55 0,-1.54 c 3.5,0 3.9,-0.35 3.9,-2.79 l 0,-25.9 c 0,-2.25 -0.5,-2.25 -3.9,-2.25 l 0,-1.54 11.1,0 0,1.54 c -3.3,0 -3.9,0 -3.9,2.25 z"
             inkscape:connector-curvature="0"
             style="fill:#000000;stroke-width:0" /><path
             id="path10223"
             d="m 1302.5,357.51 0.1,1.04 c 0.3,7.43 4.5,8.67 6.2,8.67 5.1,0 5.6,-6.72 5.6,-8.67 l -11.8,0 -0.1,-1.04 13.9,0 c 1.1,0 1.3,0 1.3,1.04 0,4.93 -2.7,9.77 -8.9,9.77 -5.8,0 -10.4,-5.14 -10.4,-11.36 0,-6.67 5.2,-11.51 11,-11.51 6,0 8.3,5.53 8.3,6.48 0,0.5 -0.4,0.6 -0.7,0.6 -0.4,0 -0.5,-0.3 -0.6,-0.7 -1.8,-5.13 -6.2,-5.13 -6.7,-5.13 -2.5,0 -4.5,1.49 -5.7,3.34 -1.5,2.39 -1.5,5.67 -1.5,7.47 z"
             inkscape:connector-curvature="0"
             style="fill:#000000;stroke-width:0" /><path
             id="path10225"
             d="m 1327.6,365.93 7.1,0 0,1.54 -7.1,0 0,9.17 -1.2,0 c -0.1,-4.09 -1.6,-9.42 -6.5,-9.62 l 0,-1.09 4.3,0 0,-13.75 c 0,-6.13 4.6,-6.73 6.4,-6.73 3.5,0 4.9,3.54 4.9,6.73 l 0,2.84 -1.2,0 0,-2.74 c 0,-3.69 -1.5,-5.58 -3.3,-5.58 -3.4,0 -3.4,4.53 -3.4,5.38 z"
             inkscape:connector-curvature="0"
             style="fill:#000000;stroke-width:0" /><path
             id="path10227"
             d="m 1349.4,355.66 0.1,-0.02 0.1,-0.02 0.1,-0.03 0.2,-0.03 0.2,-0.04 0.1,-0.05 0.2,-0.05 0.2,-0.05 0.2,-0.06 0.2,-0.07 0.3,-0.08 0.2,-0.09 0.2,-0.09 0.2,-0.1 0.2,-0.12 0.3,-0.12 0.2,-0.13 0.2,-0.14 0.2,-0.15 0.2,-0.16 0.2,-0.18 0.2,-0.19 0.1,-0.2 0.2,-0.21 0.1,-0.22 0.1,-0.12 0.1,-0.12 0,-0.13 0.1,-0.12 0,-0.13 0.1,-0.14 0,-0.14 0,-0.14 0.1,-0.15 0,-0.15 0,-0.15 0,-0.16 0,-0.16 0,-0.17 c 0,-2.54 -1.7,-4.53 -5.6,-4.53 -4.2,0 -6,2.84 -6.9,7.07 -0.2,0.65 -0.2,0.85 -0.7,0.85 -0.7,0 -0.7,-0.35 -0.7,-1.25 l 0,-6.57 c 0,-0.85 0,-1.2 0.6,-1.2 0.2,0 0.3,0.05 1.2,1 0.1,0.1 0.1,0.2 1,1.14 2.2,-2.09 4.5,-2.14 5.5,-2.14 5.7,0 8,3.34 8,6.93 0,2.64 -1.5,4.13 -2.1,4.73 -1.6,1.59 -3.6,1.99 -5.6,2.39 -2.8,0.55 -6.2,1.2 -6.2,4.09 0,1.74 1.3,3.78 5.6,3.78 5.5,0 5.7,-4.48 5.8,-6.03 0.1,-0.45 0.5,-0.45 0.6,-0.45 0.7,0 0.7,0.25 0.7,1.2 l 0,5.03 c 0,0.85 0,1.2 -0.6,1.2 -0.2,0 -0.3,0 -1,-0.6 -0.1,-0.2 -0.6,-0.65 -0.8,-0.8 -1.9,1.4 -3.9,1.4 -4.7,1.4 -6.1,0 -8,-3.34 -8,-6.13 0,-1.74 0.8,-3.14 2.2,-4.23 1.6,-1.3 3,-1.6 6.6,-2.3 z"
             inkscape:connector-curvature="0"
             style="fill:#000000;stroke-width:0" /><path
             id="path10229"
             d="m 1155.6,290.79 0,-0.19 0,-0.19 0.1,-0.19 0,-0.18 0.1,-0.19 0,-0.18 0.1,-0.18 0.1,-0.18 0,-0.18 0.1,-0.18 0.1,-0.17 0.1,-0.16 0.1,-0.17 0.1,-0.15 0.1,-0.16 0.1,-0.14 0.2,-0.15 0.1,-0.13 0.1,-0.13 0.2,-0.12 0.1,-0.12 0.2,-0.1 0.1,-0.1 0.2,-0.09 0.2,-0.08 0.2,-0.07 0.1,-0.07 0.2,-0.05 0.2,-0.04 0.2,-0.03 0.3,-0.01 0.2,-0.01 c 1,0 4.1,0.7 4.1,4.73 l 0,2.79 -1.3,0 0,-2.79 c 0,-2.89 -1.2,-3.18 -1.8,-3.18 -1.6,0 -1.8,2.24 -1.8,2.48 l 0,9.97 c 0,2.09 0,4.03 -1.8,5.88 -2,1.94 -4.5,2.74 -6.8,2.74 -4.1,0 -7.6,-2.34 -7.6,-5.63 0,-1.5 1,-2.34 2.3,-2.34 1.4,0 2.3,0.99 2.3,2.29 0,0.59 -0.2,2.24 -2.5,2.29 1.3,1.74 3.8,2.29 5.4,2.29 2.4,0 5.2,-1.94 5.2,-6.38 l 0,-1.84 0,-1.04 0,-4.99 c 0,-4.73 -3.5,-6.42 -5.8,-6.42 -2.4,0 -4.5,1.74 -4.5,4.23 0,2.74 2.1,6.88 10.3,7.18 l 0,0 0,1.04 c -2.5,-0.15 -6,-0.3 -9.1,-1.79 -3.8,-1.69 -5,-4.28 -5,-6.48 0,-4.03 4.8,-5.28 8,-5.28 3.2,0 5.5,2 6.5,4.34 z"
             inkscape:connector-curvature="0"
             style="fill:#000000;stroke-width:0" /><path
             id="path10231"
             d="m 1172.8,321.57 -7.2,-0.55 0,-1.54 c 3.5,0 3.9,-0.35 3.9,-2.79 l 0,-25.9 c 0,-2.25 -0.5,-2.25 -3.9,-2.25 l 0,-1.54 11.1,0 0,1.54 c -3.3,0 -3.9,0 -3.9,2.25 z"
             inkscape:connector-curvature="0"
             style="fill:#000000;stroke-width:0" /><path
             id="path10233"
             d="m 1201.5,297.66 -0.1,0.59 0,0.59 -0.1,0.58 -0.1,0.57 -0.1,0.56 -0.1,0.55 -0.2,0.54 -0.2,0.53 -0.2,0.52 -0.3,0.5 -0.2,0.49 -0.3,0.47 -0.3,0.46 -0.4,0.44 -0.3,0.42 -0.4,0.41 -0.4,0.39 -0.4,0.36 -0.4,0.35 -0.4,0.33 -0.5,0.3 -0.4,0.29 -0.5,0.26 -0.5,0.23 -0.5,0.21 -0.5,0.19 -0.5,0.16 -0.5,0.13 -0.6,0.1 -0.5,0.08 -0.6,0.04 -0.6,0.02 0,-1.1 c 2.2,0 4.3,-1.1 5.6,-3.24 1.3,-2.14 1.3,-5.03 1.3,-6.92 0,-1.79 0,-4.49 -1.1,-6.68 -1.1,-2.24 -3.3,-3.68 -5.8,-3.68 l 0,0 c -2.1,0 -4.3,1.04 -5.6,3.34 -1.3,2.19 -1.3,5.23 -1.3,7.02 0,1.94 0,4.63 1.2,6.82 1.4,2.3 3.7,3.34 5.7,3.34 l 0,1.1 c -6.2,0 -11,-5.43 -11,-11.66 0,-6.43 5.2,-11.21 11,-11.21 6,0 11.1,4.88 11.1,11.21 z"
             inkscape:connector-curvature="0"
             style="fill:#000000;stroke-width:0" /><path
             id="path10235"
             d="m 1208.5,304.14 0,-13.35 c 0,-2.25 -0.6,-2.25 -3.9,-2.25 l 0,-1.54 11.2,0 0,1.54 c -3.3,0 -3.9,0 -3.9,2.25 l 0,9.16 c 0,5.18 3.5,7.97 6.7,7.97 3.2,0 3.7,-2.69 3.7,-5.53 l 0,-11.6 c 0,-2.25 -0.5,-2.25 -3.9,-2.25 l 0,-1.54 11.3,0 0,1.54 c -2.6,0 -3.9,0 -3.9,1.5 l 0,9.51 c 0,4.29 0,5.83 -1.6,7.63 -0.7,0.84 -2.3,1.84 -5.2,1.84 -3.6,0 -6,-2.14 -7.4,-5.23 l 0,5.23 -7,-0.55 0,-1.54 c 3.5,0 3.9,-0.35 3.9,-2.79 z"
             inkscape:connector-curvature="0"
             style="fill:#000000;stroke-width:0" /><path
             id="path10237"
             d="m 1235.3,293.62 0,0.03 0,0.02 0,0.04 0,0.03 0,0.04 0,0.05 0,0.05 0,0.05 0,0.06 0,0.07 0,0.06 0,0.07 0,0.07 0.1,0.08 0,0.08 0,0.08 0,0.08 0,0.08 0.1,0.09 0,0.09 0,0.09 0.1,0.09 0,0.09 0,0.1 0.1,0.09 0,0.1 0.1,0.09 0,0.1 0.1,0.09 0.1,0.1 0.1,0.09 0,0.09 c 2,-1.39 4,-1.54 5,-1.54 l 0,1.15 c -4.4,0 -4.4,4.98 -4.4,6.13 0,1.34 0.1,2.93 0.8,4.18 0.4,0.6 1.6,1.99 3.6,1.99 4.3,0 4.3,-4.98 4.3,-6.12 0,-1.35 -0.1,-2.95 -0.8,-4.19 -0.4,-0.6 -1.5,-1.99 -3.5,-1.99 l 0,0 0,-1.15 c 4.6,0 8,3.44 8,7.28 0,1.84 -0.8,3.68 -2,4.83 1.8,1.69 3.6,1.94 4.5,1.94 0.1,0 0.3,0 0.5,-0.05 -0.6,-0.2 -0.8,-0.75 -0.8,-1.35 0,-0.84 0.6,-1.44 1.4,-1.44 0.5,0 1.5,0.35 1.5,1.49 0,0.85 -0.6,2.45 -2.6,2.45 -1,0 -3.2,-0.3 -5.3,-2.35 -2.1,1.65 -4.1,1.8 -5.2,1.8 -4.7,0 -8.1,-3.44 -8.1,-7.27 0,-2.2 1.1,-4.09 2.3,-5.14 -0.6,-0.74 -1.5,-2.39 -1.5,-4.13 0,-1.55 0.6,-3.44 2.2,-4.43 -3,-0.85 -4.6,-2.99 -4.6,-4.98 0,-3.59 4.9,-6.33 11,-6.33 l 0,1.14 c -5,0 -8.4,2.55 -8.4,5.19 0,2.29 1.9,4.13 4.1,4.28 l 2.9,0 c 4.3,0 9.9,0 9.9,-4.28 0,-2.69 -3.6,-5.19 -8.5,-5.19 l 0,0 0,-1.14 c 5.9,0 11.1,2.54 11.1,6.42 0,1.75 -0.7,4.29 -3.3,5.68 -2.6,1.4 -5.5,1.4 -8.5,1.4 -1.3,0 -3.4,0 -3.8,0.05 -1.6,0.2 -2.6,1.74 -2.6,3.33 z"
             inkscape:connector-curvature="0"
             style="fill:#000000;stroke-width:0" /><path
             id="path10239"
             d="m 1316.8,328.64 -0.1,-0.06 -0.1,-0.07 -0.1,-0.07 -0.1,-0.07 0,-0.08 -0.1,-0.08 -0.1,-0.09 -0.1,-0.09 -0.1,-0.09 -0.1,-0.09 -0.2,-0.19 -0.2,-0.19 -0.2,-0.21 -0.1,-0.1 -0.1,-0.1 -0.1,-0.1 0,-0.11 -0.1,-0.1 -0.1,-0.1 -0.1,-0.1 0,-0.1 -0.1,-0.1 0,-0.1 -0.1,-0.1 0,-0.09 0,-0.1 -0.1,-0.09 0,-0.09 0,-0.08 c 0,-0.5 0.5,-1 1,-1 0.4,0 0.7,0.35 0.9,0.65 0.6,0.75 1.8,2.14 4,3.24 0.3,0.2 0.8,0.45 0.8,1.05 0,0.49 -0.3,0.74 -0.7,0.99 -1.1,0.75 -1.6,1.64 -2,2.84 -0.1,0.45 -0.3,1.1 -1,1.1 -0.7,0 -1,-0.65 -1,-1.05 0,-0.25 0.4,-1.84 1.2,-2.89 l -16.8,0 c -0.8,0 -1.7,0 -1.7,-0.99 0,-1 0.9,-1 1.7,-1 z"
             inkscape:connector-curvature="0"
             style="fill:#000000;stroke-width:0" /><path
             id="path10241"
             d="m 1304.1,321.62 0,0.02 0,0.01 0,0.02 0,0.02 0,0.01 0,0.02 0,0.02 0,0.02 0,0.02 0,0.02 0,0.02 0,0.02 0,0.02 0,0.02 -0.1,0.02 0,0.02 0,0.02 0,0.02 0,0.02 0,0.02 -0.1,0.02 0,0.01 0,0.02 0,0.01 -0.1,0.01 0,0.01 0,0 0,0.01 0,0 -0.1,0.01 0,0 0,0.01 0,0 0,0 0,0 -0.1,0 0,0.01 0,0 0,0 c -0.3,0 -0.3,-0.05 -0.9,-0.75 l -2.4,-2.84 c -1.3,2.34 -3.9,3.59 -7.1,3.59 -6.4,0 -12.3,-5.73 -12.3,-11.76 0,-4.03 2.6,-6.32 5.2,-7.07 l 5.3,-1.4 c 1.8,-0.44 4.6,-1.19 4.6,-5.28 0,-4.48 -4.1,-9.16 -9,-9.16 -3.2,0 -8.7,1.09 -8.7,7.27 0,1.2 0.2,2.39 0.3,2.69 0,0.2 0.1,0.25 0.1,0.35 0,0.5 -0.4,0.55 -0.6,0.55 -0.3,0 -0.4,-0.05 -0.5,-0.2 -0.2,-0.2 -3,-11.56 -3,-11.71 0,-0.3 0.2,-0.5 0.5,-0.5 0.3,0 0.3,0.05 0.9,0.75 l 2.5,2.84 c 2.1,-2.89 5.5,-3.59 8.4,-3.59 6.8,0 12.7,6.63 12.7,12.81 0,3.43 -1.8,5.13 -2.5,5.83 -1.1,1.14 -1.9,1.34 -6.3,2.48 -1.1,0.3 -2.9,0.8 -3.4,0.9 -1.3,0.45 -3,1.89 -3,4.53 0,4.04 4,8.27 8.7,8.27 4.1,0 7.2,-2.14 7.2,-7.72 0,-1.59 -0.2,-2.49 -0.2,-2.79 0,-0.05 0,-0.5 0.6,-0.5 0.5,0 0.5,0.15 0.7,1 z"
             inkscape:connector-curvature="0"
             style="fill:#000000;stroke-width:0" /><path
             id="path10243"
             d="m 1326.3,317.24 0,0.13 0,0.12 0.1,0.11 0,0.11 0,0.11 0.1,0.09 0,0.1 0,0.08 0,0.09 0.1,0.07 0,0.08 0,0.06 0.1,0.07 0,0.06 0,0.05 0,0.06 0.1,0.04 0,0.05 0,0.04 0.1,0.04 0,0.03 0.1,0.04 0,0.03 0,0.02 0.1,0.03 0,0.02 0.1,0.02 0,0.02 0.1,0.02 0,0.02 0.1,0.01 0,0.02 c 0.5,0.1 2.1,0.1 3.2,0.1 5,0 7.2,-0.2 7.2,-4.09 0,-0.74 -0.2,-2.68 -0.4,-3.98 0,-0.2 -0.1,-0.8 -0.1,-0.95 0,-0.3 0.1,-0.64 0.6,-0.64 0.5,0 0.6,0.39 0.7,1.14 l 1.4,8.67 c 0,0.2 0.1,0.7 0.1,0.85 0,0.54 -0.5,0.54 -1.4,0.54 l -27.6,0 c -1.2,0 -1.3,-0.05 -1.6,-0.99 l -3,-8.77 c -0.1,-0.1 -0.3,-0.8 -0.3,-0.9 0,-0.29 0.2,-0.54 0.6,-0.54 0.5,0 0.5,0.25 0.8,1.04 2.7,7.72 4,8.62 11.4,8.62 l 1.9,0 c 1.4,0 1.4,-0.2 1.4,-0.6 0,-0.3 -0.1,-0.9 -0.2,-1.04 l -6.6,-26.61 c -0.5,-1.84 -0.6,-2.39 -6,-2.39 -1.8,0 -2.1,0 -2.1,-0.94 0,-0.6 0.6,-0.6 0.9,-0.6 1.3,0 2.7,0.1 4.1,0.1 l 8.3,0 c 1.5,0 3,-0.1 4.4,-0.1 0.5,0 1.1,0 1.1,1 0,0.54 -0.4,0.54 -1.7,0.54 -1.3,0 -1.9,0 -3.2,0.1 -1.5,0.15 -1.9,0.3 -1.9,1.1 0,0.05 0,0.3 0.2,1.05 z"
             inkscape:connector-curvature="0"
             style="fill:#000000;stroke-width:0" /></g></g></g>  </g>
</svg>
